<svg xmlns="http://www.w3.org/2000/svg" viewBox="0 0 576 512"><path d="M576 32H0V256H576V32zM224 96c26.5 0 48 21.5 48 48v80H176V144c0-26.5 21.5-48 48-48zm80 48c0-26.5 21.5-48 48-48s48 21.5 48 48v80H304V144zM96 128c26.5 0 48 21.5 48 48v48H48V176c0-26.5 21.5-48 48-48zm336 48c0-26.5 21.5-48 48-48s48 21.5 48 48v48H432V176zM576 480V288H0V480H576zM96 416c-26.5 0-48-21.5-48-48V320h96v48c0 26.5-21.5 48-48 48zm80-48V320h96v48c0 26.5-21.5 48-48 48s-48-21.5-48-48zm176 48c-26.5 0-48-21.5-48-48V320h96v48c0 26.5-21.5 48-48 48zm80-48V320h96v48c0 26.5-21.5 48-48 48s-48-21.5-48-48z"/></svg>